# Blender v2.78 (sub 0) OBJ File: 'coin.blend'
# www.blender.org
v 0.000000 -0.050000 -0.250000
v 0.000000 0.050000 -0.250000
v 0.039109 -0.050000 -0.246922
v 0.039109 0.050000 -0.246922
v 0.077254 -0.050000 -0.237764
v 0.077254 0.050000 -0.237764
v 0.113498 -0.050000 -0.222752
v 0.113498 0.050000 -0.222752
v 0.146946 -0.050000 -0.202254
v 0.146946 0.050000 -0.202254
v 0.176777 -0.050000 -0.176777
v 0.176777 0.050000 -0.176777
v 0.202254 -0.050000 -0.146946
v 0.202254 0.050000 -0.146946
v 0.222752 -0.050000 -0.113498
v 0.222752 0.050000 -0.113498
v 0.237764 -0.050000 -0.077254
v 0.237764 0.050000 -0.077254
v 0.246922 -0.050000 -0.039109
v 0.246922 0.050000 -0.039109
v 0.250000 -0.050000 0.000000
v 0.250000 0.050000 0.000000
v 0.246922 -0.050000 0.039109
v 0.246922 0.050000 0.039109
v 0.237764 -0.050000 0.077254
v 0.237764 0.050000 0.077254
v 0.222752 -0.050000 0.113498
v 0.222752 0.050000 0.113498
v 0.202254 -0.050000 0.146946
v 0.202254 0.050000 0.146946
v 0.176777 -0.050000 0.176777
v 0.176777 0.050000 0.176777
v 0.146946 -0.050000 0.202254
v 0.146946 0.050000 0.202254
v 0.113497 -0.050000 0.222752
v 0.113497 0.050000 0.222752
v 0.077254 -0.050000 0.237764
v 0.077254 0.050000 0.237764
v 0.039108 -0.050000 0.246922
v 0.039108 0.050000 0.246922
v -0.000000 -0.050000 0.250000
v -0.000000 0.050000 0.250000
v -0.039109 -0.050000 0.246922
v -0.039109 0.050000 0.246922
v -0.077254 -0.050000 0.237764
v -0.077254 0.050000 0.237764
v -0.113498 -0.050000 0.222752
v -0.113498 0.050000 0.222752
v -0.146947 -0.050000 0.202254
v -0.146947 0.050000 0.202254
v -0.176777 -0.050000 0.176776
v -0.176777 0.050000 0.176776
v -0.202254 -0.050000 0.146946
v -0.202254 0.050000 0.146946
v -0.222752 -0.050000 0.113497
v -0.222752 0.050000 0.113497
v -0.237764 -0.050000 0.077254
v -0.237764 0.050000 0.077254
v -0.246922 -0.050000 0.039108
v -0.246922 0.050000 0.039108
v -0.250000 -0.050000 -0.000000
v -0.250000 0.050000 -0.000000
v -0.246922 -0.050000 -0.039109
v -0.246922 0.050000 -0.039109
v -0.237764 -0.050000 -0.077255
v -0.237764 0.050000 -0.077255
v -0.222751 -0.050000 -0.113498
v -0.222751 0.050000 -0.113498
v -0.202254 -0.050000 -0.146947
v -0.202254 0.050000 -0.146947
v -0.176776 -0.050000 -0.176777
v -0.176776 0.050000 -0.176777
v -0.146946 -0.050000 -0.202255
v -0.146946 0.050000 -0.202255
v -0.113497 -0.050000 -0.222752
v -0.113497 0.050000 -0.222752
v -0.077254 -0.050000 -0.237764
v -0.077254 0.050000 -0.237764
v -0.039108 -0.050000 -0.246922
v -0.039108 0.050000 -0.246922
vt 0.8815 0.0777
vt 0.8580 0.0499
vt 0.8815 0.0499
vt 0.8580 0.0777
vt 0.8346 0.0499
vt 0.8346 0.0777
vt 0.8112 0.0499
vt 0.8112 0.0777
vt 0.7877 0.0499
vt 0.7877 0.0777
vt 0.7643 0.0499
vt 0.7643 0.0777
vt 0.7409 0.0499
vt 0.7409 0.0777
vt 0.7174 0.0499
vt 0.7174 0.0777
vt 0.6940 0.0499
vt 0.6940 0.0777
vt 0.6705 0.0499
vt 0.6705 0.0777
vt 0.6471 0.0499
vt 0.6471 0.0777
vt 0.6237 0.0499
vt 0.6237 0.0777
vt 0.6002 0.0499
vt 0.6002 0.0777
vt 0.5768 0.0499
vt 0.5768 0.0777
vt 0.5534 0.0499
vt 0.5534 0.0777
vt 0.5299 0.0499
vt 0.5299 0.0777
vt 0.5065 0.0499
vt 0.5065 0.0777
vt 0.4831 0.0499
vt 0.4831 0.0777
vt 0.4596 0.0499
vt 0.4596 0.0777
vt 0.4362 0.0499
vt 0.4362 0.0777
vt 0.4128 0.0499
vt 0.4128 0.0777
vt 0.3893 0.0499
vt 0.3893 0.0777
vt 0.3659 0.0499
vt 0.3659 0.0777
vt 0.3424 0.0499
vt 0.3424 0.0777
vt 0.3190 0.0499
vt 0.3190 0.0777
vt 0.2956 0.0499
vt 0.2956 0.0777
vt 0.2721 0.0499
vt 0.2721 0.0777
vt 0.2487 0.0499
vt 0.2487 0.0777
vt 0.2253 0.0499
vt 0.2253 0.0777
vt 0.2018 0.0499
vt 0.2018 0.0777
vt 0.1784 0.0499
vt 0.1784 0.0777
vt 0.1550 0.0499
vt 0.1550 0.0777
vt 0.1315 0.0499
vt 0.1315 0.0777
vt 0.1081 0.0499
vt 0.1081 0.0777
vt 0.0846 0.0499
vt 0.0846 0.0777
vt 0.0612 0.0499
vt 0.0612 0.0777
vt 0.0378 0.0499
vt 0.4279 0.0532
vt 0.4466 0.0754
vt 0.4279 0.0754
vt 0.9518 0.0777
vt 0.9283 0.0499
vt 0.9518 0.0499
vt 0.1526 0.2779
vt 0.9048 0.5895
vt 0.1131 0.7796
vt 0.9283 0.0777
vt 0.9049 0.0499
vt 0.9049 0.0777
vt 0.1529 0.2580
vt 0.7844 0.8521
vt 0.5550 0.9678
vt 0.0378 0.0777
vt 0.4466 0.0532
vt 0.5780 0.9721
vt 0.5117 0.9826
vt 0.4445 0.9826
vt 0.3781 0.9721
vt 0.3143 0.9514
vt 0.2544 0.9209
vt 0.2001 0.8814
vt 0.1526 0.8339
vt 0.0826 0.7197
vt 0.0618 0.6558
vt 0.0513 0.5895
vt 0.0513 0.5223
vt 0.0618 0.4560
vt 0.0826 0.3921
vt 0.1131 0.3322
vt 0.2001 0.2304
vt 0.2544 0.1909
vt 0.3143 0.1604
vt 0.3781 0.1396
vt 0.4445 0.1291
vt 0.6419 0.1604
vt 0.5117 0.1291
vt 0.5780 0.1397
vt 0.7017 0.1909
vt 0.7561 0.2304
vt 0.8036 0.2779
vt 0.8431 0.3322
vt 0.8736 0.3921
vt 0.8943 0.4560
vt 0.9048 0.5223
vt 0.8943 0.6558
vt 0.8036 0.8339
vt 0.8736 0.7197
vt 0.8431 0.7796
vt 0.7561 0.8814
vt 0.7017 0.9209
vt 0.6419 0.9514
vt 0.4885 0.9725
vt 0.2926 0.9258
vt 0.4215 0.9670
vt 0.3557 0.9513
vt 0.2339 0.8912
vt 0.1809 0.8484
vt 0.1351 0.7983
vt 0.0974 0.7422
vt 0.0689 0.6815
vt 0.0503 0.6178
vt 0.0419 0.5524
vt 0.0441 0.4871
vt 0.0567 0.4236
vt 0.0794 0.3632
vt 0.1118 0.3076
vt 0.2018 0.2158
vt 0.2573 0.1819
vt 0.3179 0.1572
vt 0.3823 0.1424
vt 0.4489 0.1376
vt 0.5159 0.1432
vt 0.5817 0.1589
vt 0.6447 0.1843
vt 0.7035 0.2189
vt 0.7564 0.2618
vt 0.8023 0.3119
vt 0.8399 0.3679
vt 0.8684 0.4286
vt 0.8871 0.4924
vt 0.8954 0.5577
vt 0.8933 0.6230
vt 0.8807 0.6866
vt 0.8579 0.7470
vt 0.8256 0.8026
vt 0.7355 0.8943
vt 0.6801 0.9282
vt 0.6194 0.9529
vn 0.0785 0.0000 -0.9969
vn 0.2334 0.0000 -0.9724
vn 0.3827 0.0000 -0.9239
vn 0.5225 0.0000 -0.8526
vn 0.6494 0.0000 -0.7604
vn 0.7604 0.0000 -0.6494
vn 0.8526 0.0000 -0.5225
vn 0.9239 0.0000 -0.3827
vn 0.9724 0.0000 -0.2334
vn 0.9969 0.0000 -0.0785
vn 0.9969 0.0000 0.0785
vn 0.9724 0.0000 0.2334
vn 0.9239 0.0000 0.3827
vn 0.8526 0.0000 0.5225
vn 0.7604 0.0000 0.6494
vn 0.6494 0.0000 0.7604
vn 0.5225 0.0000 0.8526
vn 0.3827 0.0000 0.9239
vn 0.2334 0.0000 0.9724
vn 0.0785 0.0000 0.9969
vn -0.0785 0.0000 0.9969
vn -0.2334 0.0000 0.9724
vn -0.3827 0.0000 0.9239
vn -0.5225 0.0000 0.8526
vn -0.6494 0.0000 0.7604
vn -0.7604 0.0000 0.6494
vn -0.8526 0.0000 0.5225
vn -0.9239 0.0000 0.3827
vn -0.9724 0.0000 0.2334
vn -0.9969 0.0000 0.0785
vn -0.9969 0.0000 -0.0785
vn -0.9724 0.0000 -0.2334
vn -0.9239 0.0000 -0.3827
vn -0.8526 0.0000 -0.5225
vn -0.7604 0.0000 -0.6494
vn -0.6494 0.0000 -0.7604
vn -0.5225 0.0000 -0.8526
vn -0.3827 0.0000 -0.9239
vn 0.0000 1.0000 0.0000
vn -0.2334 0.0000 -0.9724
vn -0.0785 0.0000 -0.9969
vn 0.0000 -1.0000 0.0000
s off
f 2/1/1 3/2/1 1/3/1
f 4/4/2 5/5/2 3/2/2
f 6/6/3 7/7/3 5/5/3
f 8/8/4 9/9/4 7/7/4
f 10/10/5 11/11/5 9/9/5
f 12/12/6 13/13/6 11/11/6
f 14/14/7 15/15/7 13/13/7
f 16/16/8 17/17/8 15/15/8
f 18/18/9 19/19/9 17/17/9
f 20/20/10 21/21/10 19/19/10
f 22/22/11 23/23/11 21/21/11
f 24/24/12 25/25/12 23/23/12
f 26/26/13 27/27/13 25/25/13
f 28/28/14 29/29/14 27/27/14
f 30/30/15 31/31/15 29/29/15
f 32/32/16 33/33/16 31/31/16
f 34/34/17 35/35/17 33/33/17
f 36/36/18 37/37/18 35/35/18
f 38/38/19 39/39/19 37/37/19
f 40/40/20 41/41/20 39/39/20
f 42/42/21 43/43/21 41/41/21
f 44/44/22 45/45/22 43/43/22
f 46/46/23 47/47/23 45/45/23
f 48/48/24 49/49/24 47/47/24
f 50/50/25 51/51/25 49/49/25
f 52/52/26 53/53/26 51/51/26
f 54/54/27 55/55/27 53/53/27
f 56/56/28 57/57/28 55/55/28
f 58/58/29 59/59/29 57/57/29
f 60/60/30 61/61/30 59/59/30
f 62/62/31 63/63/31 61/61/31
f 64/64/32 65/65/32 63/63/32
f 66/66/33 67/67/33 65/65/33
f 68/68/34 69/69/34 67/67/34
f 70/70/35 71/71/35 69/69/35
f 72/72/36 73/73/36 71/71/36
f 74/74/37 75/75/37 73/76/37
f 76/77/38 77/78/38 75/79/38
f 54/80/39 22/81/39 70/82/39
f 78/83/40 79/84/40 77/78/40
f 80/85/41 1/3/41 79/84/41
f 31/86/42 71/87/42 79/88/42
f 2/1/1 4/4/1 3/2/1
f 4/4/2 6/6/2 5/5/2
f 6/6/3 8/8/3 7/7/3
f 8/8/4 10/10/4 9/9/4
f 10/10/5 12/12/5 11/11/5
f 12/12/6 14/14/6 13/13/6
f 14/14/7 16/16/7 15/15/7
f 16/16/8 18/18/8 17/17/8
f 18/18/9 20/20/9 19/19/9
f 20/20/10 22/22/10 21/21/10
f 22/22/11 24/24/11 23/23/11
f 24/24/12 26/26/12 25/25/12
f 26/26/13 28/28/13 27/27/13
f 28/28/14 30/30/14 29/29/14
f 30/30/15 32/32/15 31/31/15
f 32/32/16 34/34/16 33/33/16
f 34/34/17 36/36/17 35/35/17
f 36/36/18 38/38/18 37/37/18
f 38/38/19 40/40/19 39/39/19
f 40/40/20 42/42/20 41/41/20
f 42/42/21 44/44/21 43/43/21
f 44/44/22 46/46/22 45/45/22
f 46/46/23 48/48/23 47/47/23
f 48/48/24 50/50/24 49/49/24
f 50/50/25 52/52/25 51/51/25
f 52/52/26 54/54/26 53/53/26
f 54/54/27 56/56/27 55/55/27
f 56/56/28 58/58/28 57/57/28
f 58/58/29 60/60/29 59/59/29
f 60/60/30 62/62/30 61/61/30
f 62/62/31 64/64/31 63/63/31
f 64/64/32 66/66/32 65/65/32
f 66/66/33 68/68/33 67/67/33
f 68/68/34 70/70/34 69/69/34
f 70/70/35 72/72/35 71/71/35
f 72/72/36 74/89/36 73/73/36
f 74/74/37 76/90/37 75/75/37
f 76/77/38 78/83/38 77/78/38
f 6/91/39 4/92/39 2/93/39
f 2/93/39 80/94/39 78/95/39
f 78/95/39 76/96/39 70/82/39
f 74/97/39 72/98/39 70/82/39
f 70/82/39 68/99/39 66/100/39
f 66/100/39 64/101/39 62/102/39
f 62/102/39 60/103/39 58/104/39
f 58/104/39 56/105/39 62/102/39
f 54/80/39 52/106/39 50/107/39
f 50/107/39 48/108/39 54/80/39
f 46/109/39 44/110/39 38/111/39
f 42/112/39 40/113/39 38/111/39
f 38/111/39 36/114/39 34/115/39
f 34/115/39 32/116/39 30/117/39
f 30/117/39 28/118/39 22/81/39
f 26/119/39 24/120/39 22/81/39
f 22/81/39 20/121/39 14/122/39
f 18/123/39 16/124/39 14/122/39
f 14/122/39 12/125/39 6/91/39
f 10/126/39 8/127/39 6/91/39
f 6/91/39 2/93/39 78/95/39
f 76/96/39 74/97/39 70/82/39
f 70/82/39 66/100/39 54/80/39
f 62/102/39 56/105/39 54/80/39
f 54/80/39 48/108/39 46/109/39
f 44/110/39 42/112/39 38/111/39
f 38/111/39 34/115/39 22/81/39
f 28/118/39 26/119/39 22/81/39
f 20/121/39 18/123/39 14/122/39
f 12/125/39 10/126/39 6/91/39
f 6/91/39 78/95/39 70/82/39
f 66/100/39 62/102/39 54/80/39
f 54/80/39 46/109/39 38/111/39
f 34/115/39 30/117/39 22/81/39
f 22/81/39 14/122/39 6/91/39
f 6/91/39 70/82/39 22/81/39
f 54/80/39 38/111/39 22/81/39
f 78/83/40 80/85/40 79/84/40
f 80/85/41 2/1/41 1/3/41
f 79/88/42 1/128/42 7/129/42
f 3/130/42 5/131/42 7/129/42
f 7/129/42 9/132/42 11/133/42
f 11/133/42 13/134/42 15/135/42
f 15/135/42 17/136/42 19/137/42
f 19/137/42 21/138/42 23/139/42
f 23/139/42 25/140/42 27/141/42
f 27/141/42 29/142/42 31/86/42
f 31/86/42 33/143/42 35/144/42
f 35/144/42 37/145/42 31/86/42
f 39/146/42 41/147/42 43/148/42
f 43/148/42 45/149/42 47/150/42
f 47/150/42 49/151/42 51/152/42
f 51/152/42 53/153/42 55/154/42
f 55/154/42 57/155/42 59/156/42
f 59/156/42 61/157/42 63/158/42
f 63/158/42 65/159/42 71/87/42
f 67/160/42 69/161/42 71/87/42
f 71/87/42 73/162/42 75/163/42
f 75/163/42 77/164/42 79/88/42
f 1/128/42 3/130/42 7/129/42
f 7/129/42 11/133/42 79/88/42
f 15/135/42 19/137/42 23/139/42
f 23/139/42 27/141/42 31/86/42
f 31/86/42 37/145/42 39/146/42
f 39/146/42 43/148/42 47/150/42
f 47/150/42 51/152/42 55/154/42
f 55/154/42 59/156/42 63/158/42
f 65/159/42 67/160/42 71/87/42
f 71/87/42 75/163/42 79/88/42
f 79/88/42 11/133/42 15/135/42
f 15/135/42 23/139/42 79/88/42
f 31/86/42 39/146/42 63/158/42
f 47/150/42 55/154/42 63/158/42
f 63/158/42 71/87/42 31/86/42
f 79/88/42 23/139/42 31/86/42
f 39/146/42 47/150/42 63/158/42
