# Blender v2.78 (sub 0) OBJ File: 'wall.blend'
# www.blender.org
v 0.500000 -1.500000 -0.999999
v 0.500000 -1.500000 1.000000
v -0.500000 -1.500000 0.999999
v -0.500000 -1.500000 -1.000000
v 0.500000 1.500000 -0.999999
v 0.499999 1.500000 1.000000
v -0.500000 1.500000 0.999999
v -0.500000 1.500000 -1.000000
vt 0.3015 0.9721
vt 0.0266 0.5597
vt 0.3015 0.5597
vt 0.6402 0.9642
vt 0.3546 0.5358
vt 0.6402 0.5358
vt 0.6449 0.4673
vt 0.3552 0.0327
vt 0.6449 0.0327
vt 0.3019 0.4766
vt 0.0156 0.0471
vt 0.3019 0.0471
vt 0.6931 0.5595
vt 0.9631 0.9643
vt 0.6931 0.9643
vt 0.9729 0.4552
vt 0.6886 0.0289
vt 0.9729 0.0289
vt 0.0266 0.9721
vt 0.3546 0.9642
vt 0.3552 0.4673
vt 0.0156 0.4766
vt 0.9631 0.5595
vt 0.6886 0.4552
vn 0.0000 -1.0000 0.0000
vn 0.0000 1.0000 0.0000
vn 1.0000 -0.0000 0.0000
vn -0.0000 -0.0000 1.0000
vn -1.0000 -0.0000 -0.0000
vn 0.0000 0.0000 -1.0000
s off
f 1/1/1 3/2/1 4/3/1
f 5/4/2 7/5/2 6/6/2
f 5/7/3 2/8/3 1/9/3
f 6/10/4 3/11/4 2/12/4
f 7/13/5 4/14/5 3/15/5
f 1/16/6 8/17/6 5/18/6
f 1/1/1 2/19/1 3/2/1
f 5/4/2 8/20/2 7/5/2
f 5/7/3 6/21/3 2/8/3
f 6/10/4 7/22/4 3/11/4
f 7/13/5 8/23/5 4/14/5
f 1/16/6 4/24/6 8/17/6
